<?xml version="1.0" encoding="UTF-8" standalone="no"?>
<svg
   xmlns:dc="http://purl.org/dc/elements/1.1/"
   xmlns:cc="http://web.resource.org/cc/"
   xmlns:rdf="http://www.w3.org/1999/02/22-rdf-syntax-ns#"
   xmlns:svg="http://www.w3.org/2000/svg"
   xmlns="http://www.w3.org/2000/svg"
   xmlns:sodipodi="http://inkscape.sourceforge.net/DTD/sodipodi-0.dtd"
   xmlns:inkscape="http://www.inkscape.org/namespaces/inkscape"
   width="639pt"
   height="815pt"
   id="svg2"
   sodipodi:version="0.32"
   inkscape:version="0.43"
   sodipodi:docname="selecao-vertical-notas.svg"
   sodipodi:docbase="/home/kroger/doc/artigos/processo-codificacao/figs">
  <metadata
     id="metadata619">
    <rdf:RDF>
      <cc:Work
         rdf:about="">
        <dc:format>image/svg+xml</dc:format>
        <dc:type
           rdf:resource="http://purl.org/dc/dcmitype/StillImage" />
      </cc:Work>
    </rdf:RDF>
  </metadata>
  <defs
     id="defs617" />
  <sodipodi:namedview
     inkscape:window-height="988"
     inkscape:window-width="1278"
     inkscape:pageshadow="2"
     inkscape:pageopacity="0.0"
     borderopacity="1.0"
     bordercolor="#666666"
     pagecolor="#ffffff"
     id="base"
     inkscape:zoom="1.2783741"
     inkscape:cx="399.375"
     inkscape:cy="794.53978"
     inkscape:window-x="0"
     inkscape:window-y="0"
     inkscape:current-layer="svg2" />
  <g
     transform="translate(69.68228,88.8086)"
     style="fill:none;stroke:#000000;stroke-width:0.49813199pt;stroke-linecap:round;stroke-linejoin:round;stroke-dasharray:none"
     id="g4">
    <path
       d="M 0,0 C 0,0 155.411,0 155.411,0"
       id="path6" />
  </g>
  <g
     transform="translate(69.68228,83.8281)"
     style="fill:none;stroke:#000000;stroke-width:0.49813199pt;stroke-linecap:round;stroke-linejoin:round;stroke-dasharray:none"
     id="g8">
    <path
       d="M 0,0 C 0,0 155.411,0 155.411,0"
       id="path10" />
  </g>
  <g
     transform="translate(69.68228,78.8477)"
     style="fill:none;stroke:#000000;stroke-width:0.49813199pt;stroke-linecap:round;stroke-linejoin:round;stroke-dasharray:none"
     id="g12">
    <path
       d="M 0,0 C 0,0 155.411,0 155.411,0"
       id="path14" />
  </g>
  <g
     transform="translate(69.68228,73.8633)"
     style="fill:none;stroke:#000000;stroke-width:0.49813199pt;stroke-linecap:round;stroke-linejoin:round;stroke-dasharray:none"
     id="g16">
    <path
       d="M 0,0 C 0,0 155.411,0 155.411,0"
       id="path18" />
  </g>
  <g
     transform="translate(69.68228,68.8828)"
     style="fill:none;stroke:#000000;stroke-width:0.49813199pt;stroke-linecap:round;stroke-linejoin:round;stroke-dasharray:none"
     id="g20">
    <path
       d="M 0,0 C 0,0 155.411,0 155.411,0"
       id="path22" />
  </g>
  <g
     transform="translate(69.68228,128.66)"
     style="fill:none;stroke:#000000;stroke-width:0.49813199pt;stroke-linecap:round;stroke-linejoin:round;stroke-dasharray:none"
     id="g24">
    <path
       d="M 0,0 C 0,0 155.411,0 155.411,0"
       id="path26" />
  </g>
  <g
     transform="translate(69.68228,123.68)"
     style="fill:none;stroke:#000000;stroke-width:0.49813199pt;stroke-linecap:round;stroke-linejoin:round;stroke-dasharray:none"
     id="g28">
    <path
       d="M 0,0 C 0,0 155.411,0 155.411,0"
       id="path30" />
  </g>
  <g
     transform="translate(69.68228,118.695)"
     style="fill:none;stroke:#000000;stroke-width:0.49813199pt;stroke-linecap:round;stroke-linejoin:round;stroke-dasharray:none"
     id="g32">
    <path
       d="M 0,0 C 0,0 155.411,0 155.411,0"
       id="path34" />
  </g>
  <g
     transform="translate(69.68228,113.715)"
     style="fill:none;stroke:#000000;stroke-width:0.49813199pt;stroke-linecap:round;stroke-linejoin:round;stroke-dasharray:none"
     id="g36">
    <path
       d="M 0,0 C 0,0 155.411,0 155.411,0"
       id="path38" />
  </g>
  <g
     transform="translate(69.68228,108.734)"
     style="fill:none;stroke:#000000;stroke-width:0.49813199pt;stroke-linecap:round;stroke-linejoin:round;stroke-dasharray:none"
     id="g40">
    <path
       d="M 0,0 C 0,0 155.411,0 155.411,0"
       id="path42" />
  </g>
  <g
     transform="translate(69.68228,168.508)"
     style="fill:none;stroke:#000000;stroke-width:0.49813199pt;stroke-linecap:round;stroke-linejoin:round;stroke-dasharray:none"
     id="g44">
    <path
       d="M 0,0 C 0,0 155.411,0 155.411,0"
       id="path46" />
  </g>
  <g
     transform="translate(69.68228,163.527)"
     style="fill:none;stroke:#000000;stroke-width:0.49813199pt;stroke-linecap:round;stroke-linejoin:round;stroke-dasharray:none"
     id="g48">
    <path
       d="M 0,0 C 0,0 155.411,0 155.411,0"
       id="path50" />
  </g>
  <g
     transform="translate(69.68228,158.547)"
     style="fill:none;stroke:#000000;stroke-width:0.49813199pt;stroke-linecap:round;stroke-linejoin:round;stroke-dasharray:none"
     id="g52">
    <path
       d="M 0,0 C 0,0 155.411,0 155.411,0"
       id="path54" />
  </g>
  <g
     transform="translate(69.68228,153.566)"
     style="fill:none;stroke:#000000;stroke-width:0.49813199pt;stroke-linecap:round;stroke-linejoin:round;stroke-dasharray:none"
     id="g56">
    <path
       d="M 0,0 C 0,0 155.411,0 155.411,0"
       id="path58" />
  </g>
  <g
     transform="translate(69.68228,148.586)"
     style="fill:none;stroke:#000000;stroke-width:0.49813199pt;stroke-linecap:round;stroke-linejoin:round;stroke-dasharray:none"
     id="g60">
    <path
       d="M 0,0 C 0,0 155.411,0 155.411,0"
       id="path62" />
  </g>
  <g
     transform="translate(69.68228,208.359)"
     style="fill:none;stroke:#000000;stroke-width:0.49813199pt;stroke-linecap:round;stroke-linejoin:round;stroke-dasharray:none"
     id="g64">
    <path
       d="M 0,0 C 0,0 155.411,0 155.411,0"
       id="path66" />
  </g>
  <g
     transform="translate(69.68228,203.379)"
     style="fill:none;stroke:#000000;stroke-width:0.49813199pt;stroke-linecap:round;stroke-linejoin:round;stroke-dasharray:none"
     id="g68">
    <path
       d="M 0,0 C 0,0 155.411,0 155.411,0"
       id="path70" />
  </g>
  <g
     transform="translate(69.68228,198.398)"
     style="fill:none;stroke:#000000;stroke-width:0.49813199pt;stroke-linecap:round;stroke-linejoin:round;stroke-dasharray:none"
     id="g72">
    <path
       d="M 0,0 C 0,0 155.411,0 155.411,0"
       id="path74" />
  </g>
  <g
     transform="translate(69.68228,193.418)"
     style="fill:none;stroke:#000000;stroke-width:0.49813199pt;stroke-linecap:round;stroke-linejoin:round;stroke-dasharray:none"
     id="g76">
    <path
       d="M 0,0 C 0,0 155.411,0 155.411,0"
       id="path78" />
  </g>
  <g
     transform="translate(69.68228,188.434)"
     style="fill:none;stroke:#000000;stroke-width:0.49813199pt;stroke-linecap:round;stroke-linejoin:round;stroke-dasharray:none"
     id="g80">
    <path
       d="M 0,0 C 0,0 155.411,0 155.411,0"
       id="path82" />
  </g>
  <g
     transform="translate(219.9129,188.188)"
     style="fill:#000000;fill-rule:evenodd;stroke:#000000;stroke-width:0.1pt;stroke-linecap:butt;stroke-linejoin:round;stroke-dasharray:none"
     id="g84">
    <path
       d="M 0,20.421 C 0,20.421 0.945,20.421 0.945,20.421 C 0.945,20.421 0.945,0 0.945,0 C 0.945,0 0,0 0,0 C 0,0 0,20.421 0,20.421 z "
       id="path86" />
  </g>
  <g
     transform="translate(222.3539,188.188)"
     style="fill:#000000;fill-rule:evenodd;stroke:#000000;stroke-width:0.1pt;stroke-linecap:butt;stroke-linejoin:round;stroke-dasharray:none"
     id="g88">
    <path
       d="M 0,20.421 C 0,20.421 2.989,20.421 2.989,20.421 C 2.989,20.421 2.989,0 2.989,0 C 2.989,0 0,0 0,0 C 0,0 0,20.421 0,20.421 z "
       id="path90" />
  </g>
  <g
     transform="translate(219.9129,148.336)"
     style="fill:#000000;fill-rule:evenodd;stroke:#000000;stroke-width:0.1pt;stroke-linecap:butt;stroke-linejoin:round;stroke-dasharray:none"
     id="g92">
    <path
       d="M 0,20.422 C 0,20.422 0.945,20.422 0.945,20.422 C 0.945,20.422 0.945,0 0.945,0 C 0.945,0 0,0 0,0 C 0,0 0,20.422 0,20.422 z "
       id="path94" />
  </g>
  <g
     transform="translate(222.3539,148.336)"
     style="fill:#000000;fill-rule:evenodd;stroke:#000000;stroke-width:0.1pt;stroke-linecap:butt;stroke-linejoin:round;stroke-dasharray:none"
     id="g96">
    <path
       d="M 0,20.422 C 0,20.422 2.989,20.422 2.989,20.422 C 2.989,20.422 2.989,0 2.989,0 C 2.989,0 0,0 0,0 C 0,0 0,20.422 0,20.422 z "
       id="path98" />
  </g>
  <g
     transform="translate(219.9129,108.484)"
     style="fill:#000000;fill-rule:evenodd;stroke:#000000;stroke-width:0.1pt;stroke-linecap:butt;stroke-linejoin:round;stroke-dasharray:none"
     id="g100">
    <path
       d="M 0,20.422 C 0,20.422 0.945,20.422 0.945,20.422 C 0.945,20.422 0.945,0 0.945,0 C 0.945,0 0,0 0,0 C 0,0 0,20.422 0,20.422 z "
       id="path102" />
  </g>
  <g
     transform="translate(222.3539,108.484)"
     style="fill:#000000;fill-rule:evenodd;stroke:#000000;stroke-width:0.1pt;stroke-linecap:butt;stroke-linejoin:round;stroke-dasharray:none"
     id="g104">
    <path
       d="M 0,20.422 C 0,20.422 2.989,20.422 2.989,20.422 C 2.989,20.422 2.989,0 2.989,0 C 2.989,0 0,0 0,0 C 0,0 0,20.422 0,20.422 z "
       id="path106" />
  </g>
  <g
     transform="translate(219.9129,68.6367)"
     style="fill:#000000;fill-rule:evenodd;stroke:#000000;stroke-width:0.1pt;stroke-linecap:butt;stroke-linejoin:round;stroke-dasharray:none"
     id="g108">
    <path
       d="M 0,20.4219 C 0,20.4219 0.945,20.4219 0.945,20.4219 C 0.945,20.4219 0.945,0 0.945,0 C 0.945,0 0,0 0,0 C 0,0 0,20.4219 0,20.4219 z "
       id="path110" />
  </g>
  <g
     transform="translate(222.3539,68.6367)"
     style="fill:#000000;fill-rule:evenodd;stroke:#000000;stroke-width:0.1pt;stroke-linecap:butt;stroke-linejoin:round;stroke-dasharray:none"
     id="g112">
    <path
       d="M 0,20.4219 C 0,20.4219 2.989,20.4219 2.989,20.4219 C 2.989,20.4219 2.989,0 2.989,0 C 2.989,0 0,0 0,0 C 0,0 0,20.4219 0,20.4219 z "
       id="path114" />
  </g>
  <g
     transform="translate(219.9129,188.188)"
     style="fill:#000000;fill-rule:evenodd;stroke:#000000;stroke-width:0.1pt;stroke-linecap:butt;stroke-linejoin:round;stroke-dasharray:none"
     id="g116">
    <path
       d="M 0,20.421 C 0,20.421 0.945,20.421 0.945,20.421 C 0.945,20.421 0.945,0 0.945,0 C 0.945,0 0,0 0,0 C 0,0 0,20.421 0,20.421 z "
       id="path118" />
  </g>
  <g
     transform="translate(222.3539,188.188)"
     style="fill:#000000;fill-rule:evenodd;stroke:#000000;stroke-width:0.1pt;stroke-linecap:butt;stroke-linejoin:round;stroke-dasharray:none"
     id="g120">
    <path
       d="M 0,20.421 C 0,20.421 2.989,20.421 2.989,20.421 C 2.989,20.421 2.989,0 2.989,0 C 2.989,0 0,0 0,0 C 0,0 0,20.421 0,20.421 z "
       id="path122" />
  </g>
  <g
     transform="translate(219.9129,148.336)"
     style="fill:#000000;fill-rule:evenodd;stroke:#000000;stroke-width:0.1pt;stroke-linecap:butt;stroke-linejoin:round;stroke-dasharray:none"
     id="g124">
    <path
       d="M 0,20.422 C 0,20.422 0.945,20.422 0.945,20.422 C 0.945,20.422 0.945,0 0.945,0 C 0.945,0 0,0 0,0 C 0,0 0,20.422 0,20.422 z "
       id="path126" />
  </g>
  <g
     transform="translate(222.3539,148.336)"
     style="fill:#000000;fill-rule:evenodd;stroke:#000000;stroke-width:0.1pt;stroke-linecap:butt;stroke-linejoin:round;stroke-dasharray:none"
     id="g128">
    <path
       d="M 0,20.422 C 0,20.422 2.989,20.422 2.989,20.422 C 2.989,20.422 2.989,0 2.989,0 C 2.989,0 0,0 0,0 C 0,0 0,20.422 0,20.422 z "
       id="path130" />
  </g>
  <g
     transform="translate(219.9129,108.484)"
     style="fill:#000000;fill-rule:evenodd;stroke:#000000;stroke-width:0.1pt;stroke-linecap:butt;stroke-linejoin:round;stroke-dasharray:none"
     id="g132">
    <path
       d="M 0,20.422 C 0,20.422 0.945,20.422 0.945,20.422 C 0.945,20.422 0.945,0 0.945,0 C 0.945,0 0,0 0,0 C 0,0 0,20.422 0,20.422 z "
       id="path134" />
  </g>
  <g
     transform="translate(222.3539,108.484)"
     style="fill:#000000;fill-rule:evenodd;stroke:#000000;stroke-width:0.1pt;stroke-linecap:butt;stroke-linejoin:round;stroke-dasharray:none"
     id="g136">
    <path
       d="M 0,20.422 C 0,20.422 2.989,20.422 2.989,20.422 C 2.989,20.422 2.989,0 2.989,0 C 2.989,0 0,0 0,0 C 0,0 0,20.422 0,20.422 z "
       id="path138" />
  </g>
  <g
     transform="translate(219.9129,68.6367)"
     style="fill:#000000;fill-rule:evenodd;stroke:#000000;stroke-width:0.1pt;stroke-linecap:butt;stroke-linejoin:round;stroke-dasharray:none"
     id="g140">
    <path
       d="M 0,20.4219 C 0,20.4219 0.945,20.4219 0.945,20.4219 C 0.945,20.4219 0.945,0 0.945,0 C 0.945,0 0,0 0,0 C 0,0 0,20.4219 0,20.4219 z "
       id="path142" />
  </g>
  <g
     transform="translate(222.3539,68.6367)"
     style="fill:#000000;fill-rule:evenodd;stroke:#000000;stroke-width:0.1pt;stroke-linecap:butt;stroke-linejoin:round;stroke-dasharray:none"
     id="g144">
    <path
       d="M 0,20.4219 C 0,20.4219 2.989,20.4219 2.989,20.4219 C 2.989,20.4219 2.989,0 2.989,0 C 2.989,0 0,0 0,0 C 0,0 0,20.4219 0,20.4219 z "
       id="path146" />
  </g>
  <g
     transform="translate(69.68228,208.359)"
     style="fill:none;stroke:#000000;stroke-width:0.49813199pt;stroke-linecap:round;stroke-linejoin:round;stroke-dasharray:none"
     id="g148">
    <path
       d="M 0,0 C 0,0 155.411,0 155.411,0"
       id="path150" />
  </g>
  <g
     transform="translate(69.68228,203.379)"
     style="fill:none;stroke:#000000;stroke-width:0.49813199pt;stroke-linecap:round;stroke-linejoin:round;stroke-dasharray:none"
     id="g152">
    <path
       d="M 0,0 C 0,0 155.411,0 155.411,0"
       id="path154" />
  </g>
  <g
     transform="translate(69.68228,198.398)"
     style="fill:none;stroke:#000000;stroke-width:0.49813199pt;stroke-linecap:round;stroke-linejoin:round;stroke-dasharray:none"
     id="g156">
    <path
       d="M 0,0 C 0,0 155.411,0 155.411,0"
       id="path158" />
  </g>
  <g
     transform="translate(69.68228,193.418)"
     style="fill:none;stroke:#000000;stroke-width:0.49813199pt;stroke-linecap:round;stroke-linejoin:round;stroke-dasharray:none"
     id="g160">
    <path
       d="M 0,0 C 0,0 155.411,0 155.411,0"
       id="path162" />
  </g>
  <g
     transform="translate(69.68228,188.434)"
     style="fill:none;stroke:#000000;stroke-width:0.49813199pt;stroke-linecap:round;stroke-linejoin:round;stroke-dasharray:none"
     id="g164">
    <path
       d="M 0,0 C 0,0 155.411,0 155.411,0"
       id="path166" />
  </g>
  <g
     transform="translate(69.68228,168.508)"
     style="fill:none;stroke:#000000;stroke-width:0.49813199pt;stroke-linecap:round;stroke-linejoin:round;stroke-dasharray:none"
     id="g168">
    <path
       d="M 0,0 C 0,0 155.411,0 155.411,0"
       id="path170" />
  </g>
  <g
     transform="translate(69.68228,163.527)"
     style="fill:none;stroke:#000000;stroke-width:0.49813199pt;stroke-linecap:round;stroke-linejoin:round;stroke-dasharray:none"
     id="g172">
    <path
       d="M 0,0 C 0,0 155.411,0 155.411,0"
       id="path174" />
  </g>
  <g
     transform="translate(69.68228,158.547)"
     style="fill:none;stroke:#000000;stroke-width:0.49813199pt;stroke-linecap:round;stroke-linejoin:round;stroke-dasharray:none"
     id="g176">
    <path
       d="M 0,0 C 0,0 155.411,0 155.411,0"
       id="path178" />
  </g>
  <g
     transform="translate(69.68228,153.566)"
     style="fill:none;stroke:#000000;stroke-width:0.49813199pt;stroke-linecap:round;stroke-linejoin:round;stroke-dasharray:none"
     id="g180">
    <path
       d="M 0,0 C 0,0 155.411,0 155.411,0"
       id="path182" />
  </g>
  <g
     transform="translate(69.68228,148.586)"
     style="fill:none;stroke:#000000;stroke-width:0.49813199pt;stroke-linecap:round;stroke-linejoin:round;stroke-dasharray:none"
     id="g184">
    <path
       d="M 0,0 C 0,0 155.411,0 155.411,0"
       id="path186" />
  </g>
  <g
     transform="translate(69.68228,128.66)"
     style="fill:none;stroke:#000000;stroke-width:0.49813199pt;stroke-linecap:round;stroke-linejoin:round;stroke-dasharray:none"
     id="g188">
    <path
       d="M 0,0 C 0,0 155.411,0 155.411,0"
       id="path190" />
  </g>
  <g
     transform="translate(69.68228,123.68)"
     style="fill:none;stroke:#000000;stroke-width:0.49813199pt;stroke-linecap:round;stroke-linejoin:round;stroke-dasharray:none"
     id="g192">
    <path
       d="M 0,0 C 0,0 155.411,0 155.411,0"
       id="path194" />
  </g>
  <g
     transform="translate(69.68228,118.695)"
     style="fill:none;stroke:#000000;stroke-width:0.49813199pt;stroke-linecap:round;stroke-linejoin:round;stroke-dasharray:none"
     id="g196">
    <path
       d="M 0,0 C 0,0 155.411,0 155.411,0"
       id="path198" />
  </g>
  <g
     transform="translate(69.68228,113.715)"
     style="fill:none;stroke:#000000;stroke-width:0.49813199pt;stroke-linecap:round;stroke-linejoin:round;stroke-dasharray:none"
     id="g200">
    <path
       d="M 0,0 C 0,0 155.411,0 155.411,0"
       id="path202" />
  </g>
  <g
     transform="translate(69.68228,108.734)"
     style="fill:none;stroke:#000000;stroke-width:0.49813199pt;stroke-linecap:round;stroke-linejoin:round;stroke-dasharray:none"
     id="g204">
    <path
       d="M 0,0 C 0,0 155.411,0 155.411,0"
       id="path206" />
  </g>
  <g
     transform="translate(69.68228,88.8086)"
     style="fill:none;stroke:#000000;stroke-width:0.49813199pt;stroke-linecap:round;stroke-linejoin:round;stroke-dasharray:none"
     id="g208">
    <path
       d="M 0,0 C 0,0 155.411,0 155.411,0"
       id="path210" />
  </g>
  <g
     transform="translate(69.68228,83.8281)"
     style="fill:none;stroke:#000000;stroke-width:0.49813199pt;stroke-linecap:round;stroke-linejoin:round;stroke-dasharray:none"
     id="g212">
    <path
       d="M 0,0 C 0,0 155.411,0 155.411,0"
       id="path214" />
  </g>
  <g
     transform="translate(69.68228,78.8477)"
     style="fill:none;stroke:#000000;stroke-width:0.49813199pt;stroke-linecap:round;stroke-linejoin:round;stroke-dasharray:none"
     id="g216">
    <path
       d="M 0,0 C 0,0 155.411,0 155.411,0"
       id="path218" />
  </g>
  <g
     transform="translate(69.68228,73.8633)"
     style="fill:none;stroke:#000000;stroke-width:0.49813199pt;stroke-linecap:round;stroke-linejoin:round;stroke-dasharray:none"
     id="g220">
    <path
       d="M 0,0 C 0,0 155.411,0 155.411,0"
       id="path222" />
  </g>
  <g
     transform="translate(69.68228,68.8828)"
     style="fill:none;stroke:#000000;stroke-width:0.49813199pt;stroke-linecap:round;stroke-linejoin:round;stroke-dasharray:none"
     id="g224">
    <path
       d="M 0,0 C 0,0 155.411,0 155.411,0"
       id="path226" />
  </g>
  <g
     transform="translate(68.88538,68.8828)"
     style="fill:#000000;fill-rule:evenodd;stroke:#000000;stroke-width:0.49813199pt;stroke-linecap:butt;stroke-linejoin:round;stroke-dasharray:none"
     id="g228">
    <path
       d="M 0,139.476 C 0,139.476 0.2969,139.476 0.2969,139.476 C 0.2969,139.476 0.2969,0 0.2969,0 C 0.2969,0 0,0 0,0 C 0,0 0,139.476 0,139.476 z "
       id="path230" />
  </g>
  <g
     transform="translate(144.3659,68.7148)"
     style="fill:#000000;fill-rule:evenodd;stroke:#000000;stroke-width:0.398506pt;stroke-linecap:round;stroke-linejoin:round;stroke-dasharray:none"
     id="g232">
    <path
       d="M 25,4.129 C 20.543,0 4.457,0 0,4.129 C 4.457,0.5977 20.543,0.5977 25,4.129 z "
       id="path234" />
  </g>
  <g
     transform="translate(94.49488,192.719)"
     style="fill:#000000;fill-rule:evenodd;stroke:none;stroke-width:0.398506pt;stroke-linecap:butt;stroke-linejoin:miter;stroke-dasharray:none"
     id="g236">
    <path
       d="M 7.43,1.734 C 7.07,1.695 6.715,1.734 6.394,1.953 C 5.695,2.433 5.519,3.488 6.035,4.164 C 6.754,5.121 8.226,4.804 8.527,3.668 C 8.625,3.25 8.527,2.789 8.367,2.39 C 8.008,1.394 7.269,0.636 6.273,0.261 C 5.656,0.019 5,0 4.363,0.082 C 3.246,0.199 2.109,0.617 1.332,1.476 C 0.297,2.633 0,4.265 0.098,5.758 C 0.18,6.976 0.496,8.172 1.332,9.086 C 2.172,10.004 3.406,10.422 4.601,10.5 C 5.039,10.543 5.476,10.543 5.894,10.422 C 6.633,10.203 7.269,9.746 7.75,9.148 C 8.129,8.687 8.426,8.129 8.586,7.551 C 8.625,7.394 8.746,7.152 8.687,6.996 C 8.625,6.797 8.348,6.734 8.246,6.933 C 8.148,7.093 8.129,7.293 8.066,7.472 C 7.949,7.832 7.789,8.191 7.57,8.508 C 6.793,9.683 5.18,10.48 3.824,9.746 C 3.148,9.367 2.969,8.609 2.887,7.91 C 2.769,7.035 2.828,6.156 2.828,5.281 C 2.828,4.426 2.789,3.586 2.867,2.73 C 2.926,2.133 3.066,1.437 3.547,1.015 C 3.863,0.719 4.301,0.617 4.723,0.578 C 5.719,0.48 6.851,0.879 7.43,1.734 z "
       id="path238" />
  </g>
  <g
     transform="translate(73.27208,187.52)"
     style="fill:#000000;fill-rule:evenodd;stroke:none;stroke-width:0.398506pt;stroke-linecap:butt;stroke-linejoin:miter;stroke-dasharray:none"
     id="g240">
    <path
       d="M 1.875,3.25 C 1.9727,2.851 2.1953,2.453 2.4336,2.132 C 2.711,1.753 3.0508,1.414 3.4492,1.156 C 5.082,0.14 6.9766,1.117 7.7149,2.75 C 7.9531,3.269 8.1328,3.828 8.211,4.382 C 8.2891,4.941 8.3125,5.5 8.2696,6.058 C 8.0117,8.75 6.2578,10.898 4.207,12.535 C 3.1914,13.351 2.0938,14.066 0.9766,14.765 C 0.7188,14.925 0.4219,15.066 0.1602,15.242 C 0.0625,15.324 0,15.441 0.0625,15.562 C 0.2227,15.863 0.6797,15.542 0.8985,15.441 C 1.6953,15.105 2.4727,14.746 3.2305,14.367 C 6.1797,12.894 9.4649,10.722 10.4608,7.375 C 10.9418,5.699 10.9418,3.707 9.8438,2.253 C 9.1094,1.277 7.9531,0.699 6.7774,0.437 C 4.8242,0 2.793,0.281 1.4375,1.894 C 0.7774,2.671 0.3789,3.687 0.3203,4.703 C 0.2813,5.121 0.3008,5.539 0.4805,5.918 C 1.1563,7.394 3.3281,7.71 4.207,6.238 C 4.9649,4.96 4.2266,3.25 2.711,3.109 C 2.4141,3.089 2.1524,3.148 1.875,3.25 z M 12.2778,1.972 C 12.1168,2.011 11.9768,2.054 11.8358,2.152 C 10.9608,2.75 11.5198,4.183 12.5738,4.027 C 12.7348,3.984 12.8748,3.945 13.0118,3.847 C 13.8908,3.25 13.3318,1.812 12.2778,1.972 z M 12.2778,6.933 C 12.1168,6.976 11.9768,7.015 11.8358,7.113 C 10.9608,7.71 11.5198,9.148 12.5738,8.988 C 12.7348,8.949 12.8748,8.906 13.0118,8.808 C 13.8908,8.21 13.3318,6.777 12.2778,6.933 z "
       id="path242" />
  </g>
  <g
     transform="translate(94.49488,153.719)"
     style="fill:#000000;fill-rule:evenodd;stroke:none;stroke-width:0.398506pt;stroke-linecap:butt;stroke-linejoin:miter;stroke-dasharray:none"
     id="g244">
    <path
       d="M 7.43,1.734 C 7.07,1.695 6.715,1.734 6.394,1.953 C 5.695,2.433 5.519,3.488 6.035,4.164 C 6.754,5.121 8.226,4.804 8.527,3.668 C 8.625,3.25 8.527,2.789 8.367,2.39 C 8.008,1.394 7.269,0.636 6.273,0.261 C 5.656,0.019 5,0 4.363,0.082 C 3.246,0.199 2.109,0.617 1.332,1.476 C 0.297,2.633 0,4.265 0.098,5.758 C 0.18,6.976 0.496,8.172 1.332,9.086 C 2.172,10.004 3.406,10.422 4.601,10.5 C 5.039,10.543 5.476,10.543 5.894,10.422 C 6.633,10.203 7.269,9.746 7.75,9.148 C 8.129,8.687 8.426,8.129 8.586,7.551 C 8.625,7.394 8.746,7.152 8.687,6.996 C 8.625,6.797 8.348,6.734 8.246,6.933 C 8.148,7.093 8.129,7.293 8.066,7.472 C 7.949,7.832 7.789,8.191 7.57,8.508 C 6.793,9.683 5.18,10.48 3.824,9.746 C 3.148,9.367 2.969,8.609 2.887,7.91 C 2.769,7.035 2.828,6.156 2.828,5.281 C 2.828,4.426 2.789,3.586 2.867,2.73 C 2.926,2.133 3.066,1.437 3.547,1.015 C 3.863,0.719 4.301,0.617 4.723,0.578 C 5.719,0.48 6.851,0.879 7.43,1.734 z "
       id="path246" />
  </g>
  <g
     transform="translate(73.27208,148.52)"
     style="fill:#000000;fill-rule:evenodd;stroke:none;stroke-width:0.398506pt;stroke-linecap:butt;stroke-linejoin:miter;stroke-dasharray:none"
     id="g248">
    <path
       d="M 1.875,3.25 C 1.9727,2.851 2.1953,2.453 2.4336,2.132 C 2.711,1.753 3.0508,1.414 3.4492,1.156 C 5.082,0.14 6.9766,1.117 7.7149,2.75 C 7.9531,3.269 8.1328,3.828 8.211,4.382 C 8.2891,4.941 8.3125,5.5 8.2696,6.058 C 8.0117,8.75 6.2578,10.898 4.207,12.535 C 3.1914,13.351 2.0938,14.066 0.9766,14.765 C 0.7188,14.925 0.4219,15.066 0.1602,15.242 C 0.0625,15.324 0,15.441 0.0625,15.562 C 0.2227,15.863 0.6797,15.542 0.8985,15.441 C 1.6953,15.105 2.4727,14.746 3.2305,14.367 C 6.1797,12.894 9.4649,10.722 10.4608,7.375 C 10.9418,5.699 10.9418,3.707 9.8438,2.253 C 9.1094,1.277 7.9531,0.699 6.7774,0.437 C 4.8242,0 2.793,0.281 1.4375,1.894 C 0.7774,2.671 0.3789,3.687 0.3203,4.703 C 0.2813,5.121 0.3008,5.539 0.4805,5.918 C 1.1563,7.394 3.3281,7.71 4.207,6.238 C 4.9649,4.96 4.2266,3.25 2.711,3.109 C 2.4141,3.089 2.1524,3.148 1.875,3.25 z M 12.2778,1.972 C 12.1168,2.011 11.9768,2.054 11.8358,2.152 C 10.9608,2.75 11.5198,4.183 12.5738,4.027 C 12.7348,3.984 12.8748,3.945 13.0118,3.847 C 13.8908,3.25 13.3318,1.812 12.2778,1.972 z M 12.2778,6.933 C 12.1168,6.976 11.9768,7.015 11.8358,7.113 C 10.9608,7.71 11.5198,9.148 12.5738,8.988 C 12.7348,8.949 12.8748,8.906 13.0118,8.808 C 13.8908,8.21 13.3318,6.777 12.2778,6.933 z "
       id="path250" />
  </g>
  <g
     transform="translate(94.49488,113.719)"
     style="fill:#000000;fill-rule:evenodd;stroke:none;stroke-width:0.398506pt;stroke-linecap:butt;stroke-linejoin:miter;stroke-dasharray:none"
     id="g252">
    <path
       d="M 7.43,1.734 C 7.07,1.695 6.715,1.734 6.394,1.953 C 5.695,2.433 5.519,3.488 6.035,4.164 C 6.754,5.121 8.226,4.804 8.527,3.668 C 8.625,3.25 8.527,2.789 8.367,2.39 C 8.008,1.394 7.269,0.636 6.273,0.261 C 5.656,0.019 5,0 4.363,0.082 C 3.246,0.199 2.109,0.617 1.332,1.476 C 0.297,2.633 0,4.265 0.098,5.758 C 0.18,6.976 0.496,8.172 1.332,9.086 C 2.172,10.004 3.406,10.422 4.601,10.5 C 5.039,10.543 5.476,10.543 5.894,10.422 C 6.633,10.203 7.269,9.746 7.75,9.148 C 8.129,8.687 8.426,8.129 8.586,7.551 C 8.625,7.394 8.746,7.152 8.687,6.996 C 8.625,6.797 8.348,6.734 8.246,6.933 C 8.148,7.093 8.129,7.293 8.066,7.472 C 7.949,7.832 7.789,8.191 7.57,8.508 C 6.793,9.683 5.18,10.48 3.824,9.746 C 3.148,9.367 2.969,8.609 2.887,7.91 C 2.769,7.035 2.828,6.156 2.828,5.281 C 2.828,4.426 2.789,3.586 2.867,2.73 C 2.926,2.133 3.066,1.437 3.547,1.015 C 3.863,0.719 4.301,0.617 4.723,0.578 C 5.719,0.48 6.851,0.879 7.43,1.734 z "
       id="path254" />
  </g>
  <g
     transform="translate(73.21348,98.9922)"
     style="fill:#000000;fill-rule:evenodd;stroke:none;stroke-width:0.398506pt;stroke-linecap:butt;stroke-linejoin:miter;stroke-dasharray:none"
     id="g256">
    <path
       d="M 8.8086,30.1288 C 8.8086,31.9218 8.9688,33.8558 8.0899,35.4878 C 7.8906,35.8668 7.6133,36.2268 7.293,36.5038 C 6.375,37.3008 5.0821,37.4218 4.0039,36.8438 C 3.5664,36.6058 3.2305,36.2658 2.9297,35.8868 C 3.4297,36.0078 3.8867,36.0278 4.3633,35.7888 C 5.6602,35.1098 5.6992,33.1958 4.543,32.3598 C 3.2891,31.4458 1.3946,32.4608 1.2578,33.9338 C 1.2149,34.2928 1.2774,34.6718 1.375,35.0118 C 1.9922,37.4998 5.2032,38.9138 7.3946,37.4808 C 9.1446,36.3438 9.6055,34.1718 9.6446,32.2418 C 9.6641,31.7028 9.6641,31.1448 9.6641,30.6058 C 9.6641,30.4258 9.586,30.1288 9.6641,29.9488 C 9.7032,29.8518 9.9024,29.8088 10.0039,29.7698 C 10.2813,29.6718 10.5624,29.5118 10.8204,29.3518 C 11.5394,28.8748 12.0934,28.1958 12.5154,27.4568 C 13.6094,25.4258 13.0894,22.7148 11.4184,21.1408 C 10.4614,20.2458 9.1875,19.7658 7.8711,19.7658 C 7.8321,19.4098 7.6719,19.0308 7.5742,18.6718 C 7.375,17.9918 7.1719,17.3168 6.9532,16.6598 C 6.9532,16.6598 6.6563,15.7618 6.6563,15.7618 C 6.6367,15.6638 6.5352,15.5038 6.5547,15.4028 C 6.6172,15.2028 6.875,14.9848 6.9961,14.8238 C 7.293,14.4258 7.5938,14.0278 7.8711,13.6098 C 8.7696,12.2778 9.586,10.8598 9.9024,9.2658 C 10.4024,6.7778 9.6446,4.2068 8.3906,2.0548 C 8.0703,1.4958 7.711,0.957 7.2735,0.4805 C 7.1133,0.3008 6.8946,0 6.6367,0.1797 C 6.4571,0.2812 6.3164,0.4609 6.1758,0.5976 C 5.7774,0.9961 5.4024,1.4768 5.1016,1.9528 C 3.5078,4.4848 3.5469,7.5548 4.1446,10.3828 C 4.3242,11.1988 4.5625,12.0158 4.7813,12.8128 C 4.8633,13.0508 4.9414,13.2738 5.0039,13.5118 C 5.043,13.5898 5.1016,13.7108 5.0821,13.7888 C 5.0625,13.9488 4.8242,14.1678 4.7227,14.2888 C 4.7227,14.2888 3.7656,15.5038 3.7656,15.5038 C 2.7696,16.7778 1.8125,18.0938 1.1563,19.5898 C 0,22.1798 0.0391,25.2848 1.875,27.5778 C 2.211,28.0158 2.5899,28.4138 3.0313,28.7538 C 3.5664,29.1718 4.1446,29.5118 4.7813,29.7698 C 5.6992,30.1288 6.6953,30.2888 7.6914,30.2498 C 8.0703,30.2268 8.4297,30.1488 8.8086,30.1288 z M 5.7578,12.9728 C 5.6406,12.8128 5.6016,12.5548 5.5586,12.3748 C 5.4219,11.9568 5.3008,11.5388 5.2032,11.1018 C 5.0039,10.3628 4.8242,9.6248 4.7813,8.8668 C 4.7227,7.4918 5.1211,6.0778 5.8985,4.9418 C 6.2774,4.3668 6.7344,3.8478 7.293,3.4098 C 7.4141,3.3278 7.6914,3.0308 7.8516,3.0508 C 7.9922,3.0698 8.1289,3.4878 8.1914,3.6098 C 8.5078,4.2458 8.6485,4.9418 8.6485,5.6408 C 8.6485,7.5938 8.0899,9.3478 7.0938,11.0198 C 6.6758,11.6988 6.1758,12.3168 5.7578,12.9728 z M 5.918,16.2228 C 5.918,16.2228 7.0156,19.8278 7.0156,19.8278 C 6.5352,19.9878 6.0782,20.0668 5.6406,20.3048 C 4.3633,21.0428 3.5078,22.4958 3.6055,23.9918 C 3.6875,25.2458 4.3242,26.3438 5.3399,27.0588 C 5.5586,27.2378 5.8203,27.3598 6.0586,27.4808 C 6.1992,27.5588 6.3164,27.6168 6.4766,27.5778 C 6.7539,27.5198 6.9141,27.1598 6.7149,26.9218 C 6.5547,26.7028 6.1992,26.6018 5.9766,26.4218 C 5.4414,26.0038 5.0235,25.4058 4.9024,24.7308 C 4.7422,23.6328 5.3789,22.6558 6.3555,22.1988 C 6.7539,22.0198 7.1524,21.9998 7.5742,21.9178 C 8.0703,23.7108 8.3906,25.6058 8.6094,27.4568 C 8.668,27.8988 8.6875,28.3168 8.7266,28.7538 C 8.7461,28.8748 8.8282,29.1718 8.7461,29.2498 C 8.668,29.3518 8.3282,29.3518 8.211,29.3518 C 7.6524,29.3908 7.1133,29.4098 6.5547,29.3318 C 4.4453,29.0308 2.0547,27.4808 1.8125,25.1678 C 1.4766,21.6798 3.9453,18.8128 5.8789,16.2228 C 5.8789,16.2228 5.918,16.2228 5.918,16.2228 z M 8.4688,21.9608 C 9.4844,22.2188 10.3634,22.5978 11.0194,23.4728 C 12.1364,24.9688 12.0544,27.1408 10.6404,28.4138 C 10.3438,28.6958 9.9844,28.8948 9.6055,29.0508 C 9.4844,28.5738 9.5235,28.0158 9.4649,27.5198 C 9.3438,26.4808 9.1875,25.4458 8.9883,24.4298 C 8.8867,23.8708 8.7696,23.2928 8.6289,22.7378 C 8.5899,22.5158 8.4492,22.1798 8.4688,21.9608 z "
       id="path258" />
  </g>
  <g
     transform="translate(94.49488,73.7188)"
     style="fill:#000000;fill-rule:evenodd;stroke:none;stroke-width:0.398506pt;stroke-linecap:butt;stroke-linejoin:miter;stroke-dasharray:none"
     id="g260">
    <path
       d="M 7.43,1.7343 C 7.07,1.6953 6.715,1.7343 6.394,1.9531 C 5.695,2.4335 5.519,3.4882 6.035,4.164 C 6.754,5.121 8.226,4.8046 8.527,3.6679 C 8.625,3.25 8.527,2.789 8.367,2.3906 C 8.008,1.3945 7.269,0.6367 6.273,0.2617 C 5.656,0.0195 5,0 4.363,0.082 C 3.246,0.1992 2.109,0.6171 1.332,1.4765 C 0.297,2.6328 0,4.2656 0.098,5.7578 C 0.18,6.9765 0.496,8.1718 1.332,9.0859 C 2.172,10.0039 3.406,10.4218 4.601,10.5 C 5.039,10.5429 5.476,10.5429 5.894,10.4218 C 6.633,10.2031 7.269,9.746 7.75,9.1484 C 8.129,8.6874 8.426,8.1289 8.586,7.5507 C 8.625,7.3945 8.746,7.1523 8.687,6.996 C 8.625,6.7968 8.348,6.7343 8.246,6.9335 C 8.148,7.0937 8.129,7.2929 8.066,7.4726 C 7.949,7.832 7.789,8.1914 7.57,8.5078 C 6.793,9.6835 5.18,10.4804 3.824,9.746 C 3.148,9.3671 2.969,8.6093 2.887,7.9101 C 2.769,7.0351 2.828,6.1562 2.828,5.2812 C 2.828,4.4257 2.789,3.5859 2.867,2.7304 C 2.926,2.1328 3.066,1.4374 3.547,1.0156 C 3.863,0.7187 4.301,0.6171 4.723,0.5781 C 5.719,0.4804 6.851,0.8789 7.43,1.7343 z "
       id="path262" />
  </g>
  <g
     transform="translate(73.21348,58.9922)"
     style="fill:#000000;fill-rule:evenodd;stroke:none;stroke-width:0.398506pt;stroke-linecap:butt;stroke-linejoin:miter;stroke-dasharray:none"
     id="g264">
    <path
       d="M 8.8086,30.1289 C 8.8086,31.9219 8.9688,33.8555 8.0899,35.4883 C 7.8906,35.8672 7.6133,36.2266 7.293,36.5039 C 6.375,37.3008 5.0821,37.4219 4.0039,36.8437 C 3.5664,36.6055 3.2305,36.2656 2.9297,35.8867 C 3.4297,36.0078 3.8867,36.0273 4.3633,35.789 C 5.6602,35.1094 5.6992,33.1953 4.543,32.3594 C 3.2891,31.4453 1.3946,32.4609 1.2578,33.9336 C 1.2149,34.293 1.2774,34.6719 1.375,35.0117 C 1.9922,37.5 5.2032,38.914 7.3946,37.4805 C 9.1446,36.3437 9.6055,34.1719 9.6446,32.2422 C 9.6641,31.7031 9.6641,31.1445 9.6641,30.6055 C 9.6641,30.4258 9.586,30.1289 9.6641,29.9492 C 9.7032,29.8516 9.9024,29.8086 10.0039,29.7695 C 10.2813,29.6719 10.5624,29.5117 10.8204,29.3516 C 11.5394,28.875 12.0934,28.1953 12.5154,27.457 C 13.6094,25.4258 13.0894,22.7148 11.4184,21.1406 C 10.4614,20.2461 9.1875,19.7656 7.8711,19.7656 C 7.8321,19.4101 7.6719,19.0312 7.5742,18.6719 C 7.375,17.9922 7.1719,17.3164 6.9532,16.6601 C 6.9532,16.6601 6.6563,15.7617 6.6563,15.7617 C 6.6367,15.664 6.5352,15.5039 6.5547,15.4023 C 6.6172,15.2031 6.875,14.9844 6.9961,14.8242 C 7.293,14.4258 7.5938,14.0273 7.8711,13.6094 C 8.7696,12.2773 9.586,10.8594 9.9024,9.2656 C 10.4024,6.7773 9.6446,4.207 8.3906,2.0547 C 8.0703,1.4961 7.711,0.957 7.2735,0.4805 C 7.1133,0.3008 6.8946,0 6.6367,0.1797 C 6.4571,0.2812 6.3164,0.4609 6.1758,0.5976 C 5.7774,0.9961 5.4024,1.4766 5.1016,1.9531 C 3.5078,4.4844 3.5469,7.5547 4.1446,10.3828 C 4.3242,11.1992 4.5625,12.0156 4.7813,12.8125 C 4.8633,13.0508 4.9414,13.2734 5.0039,13.5117 C 5.043,13.5898 5.1016,13.7109 5.0821,13.789 C 5.0625,13.9492 4.8242,14.168 4.7227,14.289 C 4.7227,14.289 3.7656,15.5039 3.7656,15.5039 C 2.7696,16.7773 1.8125,18.0937 1.1563,19.5898 C 0,22.1797 0.0391,25.2851 1.875,27.5781 C 2.211,28.0156 2.5899,28.414 3.0313,28.7539 C 3.5664,29.1719 4.1446,29.5117 4.7813,29.7695 C 5.6992,30.1289 6.6953,30.289 7.6914,30.25 C 8.0703,30.2266 8.4297,30.1484 8.8086,30.1289 z M 5.7578,12.9726 C 5.6406,12.8125 5.6016,12.5547 5.5586,12.375 C 5.4219,11.957 5.3008,11.539 5.2032,11.1016 C 5.0039,10.3633 4.8242,9.625 4.7813,8.8672 C 4.7227,7.4922 5.1211,6.0781 5.8985,4.9414 C 6.2774,4.3672 6.7344,3.8476 7.293,3.4101 C 7.4141,3.3281 7.6914,3.0312 7.8516,3.0508 C 7.9922,3.0703 8.1289,3.4883 8.1914,3.6094 C 8.5078,4.2461 8.6485,4.9414 8.6485,5.6406 C 8.6485,7.5937 8.0899,9.3476 7.0938,11.0195 C 6.6758,11.6992 6.1758,12.3164 5.7578,12.9726 z M 5.918,16.2226 C 5.918,16.2226 7.0156,19.8281 7.0156,19.8281 C 6.5352,19.9883 6.0782,20.0664 5.6406,20.3047 C 4.3633,21.043 3.5078,22.4961 3.6055,23.9922 C 3.6875,25.2461 4.3242,26.3437 5.3399,27.0586 C 5.5586,27.2383 5.8203,27.3594 6.0586,27.4805 C 6.1992,27.5586 6.3164,27.6172 6.4766,27.5781 C 6.7539,27.5195 6.9141,27.1601 6.7149,26.9219 C 6.5547,26.7031 6.1992,26.6016 5.9766,26.4219 C 5.4414,26.0039 5.0235,25.4062 4.9024,24.7305 C 4.7422,23.6328 5.3789,22.6562 6.3555,22.1992 C 6.7539,22.0195 7.1524,22 7.5742,21.918 C 8.0703,23.7109 8.3906,25.6055 8.6094,27.457 C 8.668,27.8984 8.6875,28.3164 8.7266,28.7539 C 8.7461,28.875 8.8282,29.1719 8.7461,29.25 C 8.668,29.3516 8.3282,29.3516 8.211,29.3516 C 7.6524,29.3906 7.1133,29.4101 6.5547,29.332 C 4.4453,29.0312 2.0547,27.4805 1.8125,25.168 C 1.4766,21.6797 3.9453,18.8125 5.8789,16.2226 C 5.8789,16.2226 5.918,16.2226 5.918,16.2226 z M 8.4688,21.9609 C 9.4844,22.2187 10.3634,22.5976 11.0194,23.4726 C 12.1364,24.9687 12.0544,27.1406 10.6404,28.414 C 10.3438,28.6953 9.9844,28.8945 9.6055,29.0508 C 9.4844,28.5742 9.5235,28.0156 9.4649,27.5195 C 9.3438,26.4805 9.1875,25.4453 8.9883,24.4297 C 8.8867,23.8711 8.7696,23.293 8.6289,22.7383 C 8.5899,22.5156 8.4492,22.1797 8.4688,21.9609 z "
       id="path266" />
  </g>
  <g
     transform="translate(200.9679,193.125)"
     style="fill:#000000;fill-rule:evenodd;stroke:#000000;stroke-width:0.398506pt;stroke-linecap:butt;stroke-linejoin:round;stroke-dasharray:none"
     id="g268">
    <path
       d="M 0,16.098 C 0,16.098 0.246,16.098 0.246,16.098 C 0.246,16.098 0.246,0 0.246,0 C 0.246,0 0,0 0,0 C 0,0 0,16.098 0,16.098 z "
       id="path270" />
  </g>
  <g
     transform="translate(195.0569,150.211)"
     style="fill:#000000;fill-rule:evenodd;stroke:#000000;stroke-width:0.398506pt;stroke-linecap:butt;stroke-linejoin:round;stroke-dasharray:none"
     id="g272">
    <path
       d="M 0,16.098 C 0,16.098 0.246,16.098 0.246,16.098 C 0.246,16.098 0.246,0 0.246,0 C 0.246,0 0,0 0,0 C 0,0 0,16.098 0,16.098 z "
       id="path274" />
  </g>
  <g
     transform="translate(200.9679,108.934)"
     style="fill:#000000;fill-rule:evenodd;stroke:#000000;stroke-width:0.398506pt;stroke-linecap:butt;stroke-linejoin:round;stroke-dasharray:none"
     id="g276">
    <path
       d="M 0,16.097 C 0,16.097 0.246,16.097 0.246,16.097 C 0.246,16.097 0.246,0 0.246,0 C 0.246,0 0,0 0,0 C 0,0 0,16.097 0,16.097 z "
       id="path278" />
  </g>
  <g
     transform="translate(195.0569,79.9805)"
     style="fill:#000000;fill-rule:evenodd;stroke:#000000;stroke-width:0.398506pt;stroke-linecap:butt;stroke-linejoin:round;stroke-dasharray:none"
     id="g280">
    <path
       d="M 0,13.6093 C 0,13.6093 0.246,13.6093 0.246,13.6093 C 0.246,13.6093 0.246,0 0.246,0 C 0.246,0 0,0 0,0 C 0,0 0,13.6093 0,13.6093 z "
       id="path282" />
  </g>
  <g
     transform="translate(194.5529,207.152)"
     style="fill:#000000;fill-rule:evenodd;stroke:none;stroke-width:0.398506pt;stroke-linecap:butt;stroke-linejoin:miter;stroke-dasharray:none"
     id="g284">
    <path
       d="M 4.125,0.098 C 2.61,0.297 1.137,1.094 0.379,2.469 C 0.219,2.77 0.122,3.067 0.059,3.407 C 0.02,3.625 0,3.825 0.04,4.043 C 0.219,5.297 1.555,5.696 2.649,5.578 C 4.165,5.399 5.719,4.383 6.336,2.969 C 6.594,2.391 6.676,1.711 6.415,1.133 C 6.016,0.317 4.961,0 4.125,0.098 z "
       id="path286" />
  </g>
  <g
     transform="translate(194.5529,146.152)"
     style="fill:#000000;fill-rule:evenodd;stroke:none;stroke-width:0.398506pt;stroke-linecap:butt;stroke-linejoin:miter;stroke-dasharray:none"
     id="g288">
    <path
       d="M 4.125,0.098 C 2.61,0.297 1.137,1.094 0.379,2.469 C 0.219,2.77 0.122,3.067 0.059,3.407 C 0.02,3.625 0,3.825 0.04,4.043 C 0.219,5.297 1.555,5.696 2.649,5.578 C 4.165,5.399 5.719,4.383 6.336,2.969 C 6.594,2.391 6.676,1.711 6.415,1.133 C 6.016,0.317 4.961,0 4.125,0.098 z "
       id="path290" />
  </g>
  <g
     transform="translate(194.5529,123.152)"
     style="fill:#000000;fill-rule:evenodd;stroke:none;stroke-width:0.398506pt;stroke-linecap:butt;stroke-linejoin:miter;stroke-dasharray:none"
     id="g292">
    <path
       d="M 4.125,0.098 C 2.61,0.297 1.137,1.094 0.379,2.469 C 0.219,2.77 0.122,3.067 0.059,3.407 C 0.02,3.625 0,3.825 0.04,4.043 C 0.219,5.297 1.555,5.696 2.649,5.578 C 4.165,5.399 5.719,4.383 6.336,2.969 C 6.594,2.391 6.676,1.711 6.415,1.133 C 6.016,0.317 4.961,0 4.125,0.098 z "
       id="path294" />
  </g>
  <g
     transform="translate(194.5529,76.1523)"
     style="fill:#000000;fill-rule:evenodd;stroke:none;stroke-width:0.398506pt;stroke-linecap:butt;stroke-linejoin:miter;stroke-dasharray:none"
     id="g296">
    <path
       d="M 4.125,0.0977 C 2.61,0.2969 1.137,1.0938 0.379,2.4688 C 0.219,2.7696 0.122,3.0665 0.059,3.4063 C 0.02,3.625 0,3.8243 0.04,4.043 C 0.219,5.2969 1.555,5.6954 2.649,5.5782 C 4.165,5.3985 5.719,4.3829 6.336,2.9688 C 6.594,2.3907 6.676,1.711 6.415,1.1329 C 6.016,0.3165 4.961,0 4.125,0.0977 z "
       id="path298" />
  </g>
  <g
     transform="translate(173.1939,191.125)"
     style="fill:#000000;fill-rule:evenodd;stroke:#000000;stroke-width:0.398506pt;stroke-linecap:butt;stroke-linejoin:round;stroke-dasharray:none"
     id="g300">
    <path
       d="M 0,16.098 C 0,16.098 0.246,16.098 0.246,16.098 C 0.246,16.098 0.246,0 0.246,0 C 0.246,0 0,0 0,0 C 0,0 0,16.098 0,16.098 z "
       id="path302" />
  </g>
  <g
     transform="translate(167.2839,152.211)"
     style="fill:#000000;fill-rule:evenodd;stroke:#000000;stroke-width:0.398506pt;stroke-linecap:butt;stroke-linejoin:round;stroke-dasharray:none"
     id="g304">
    <path
       d="M 0,16.098 C 0,16.098 0.246,16.098 0.246,16.098 C 0.246,16.098 0.246,0 0.246,0 C 0.246,0 0,0 0,0 C 0,0 0,16.098 0,16.098 z "
       id="path306" />
  </g>
  <g
     transform="translate(173.1939,108.934)"
     style="fill:#000000;fill-rule:evenodd;stroke:#000000;stroke-width:0.398506pt;stroke-linecap:butt;stroke-linejoin:round;stroke-dasharray:none"
     id="g308">
    <path
       d="M 0,16.097 C 0,16.097 0.246,16.097 0.246,16.097 C 0.246,16.097 0.246,0 0.246,0 C 0.246,0 0,0 0,0 C 0,0 0,16.097 0,16.097 z "
       id="path310" />
  </g>
  <g
     transform="translate(167.2839,77.4922)"
     style="fill:#000000;fill-rule:evenodd;stroke:#000000;stroke-width:0.398506pt;stroke-linecap:butt;stroke-linejoin:round;stroke-dasharray:none"
     id="g312">
    <path
       d="M 0,16.0976 C 0,16.0976 0.246,16.0976 0.246,16.0976 C 0.246,16.0976 0.246,0 0.246,0 C 0.246,0 0,0 0,0 C 0,0 0,16.0976 0,16.0976 z "
       id="path314" />
  </g>
  <g
     transform="translate(167.5529,205.152)"
     style="fill:#000000;fill-rule:evenodd;stroke:none;stroke-width:0.398506pt;stroke-linecap:butt;stroke-linejoin:miter;stroke-dasharray:none"
     id="g316">
    <path
       d="M 4.125,0.098 C 2.61,0.297 1.137,1.094 0.379,2.469 C 0.219,2.77 0.122,3.067 0.059,3.407 C 0.02,3.625 0,3.825 0.04,4.043 C 0.219,5.297 1.555,5.696 2.649,5.578 C 4.165,5.399 5.719,4.383 6.336,2.969 C 6.594,2.391 6.676,1.711 6.415,1.133 C 6.016,0.317 4.961,0 4.125,0.098 z "
       id="path318" />
  </g>
  <g
     transform="translate(167.5529,148.152)"
     style="fill:#000000;fill-rule:evenodd;stroke:none;stroke-width:0.398506pt;stroke-linecap:butt;stroke-linejoin:miter;stroke-dasharray:none"
     id="g320">
    <path
       d="M 4.125,0.098 C 2.61,0.297 1.137,1.094 0.379,2.469 C 0.219,2.77 0.122,3.067 0.059,3.407 C 0.02,3.625 0,3.825 0.04,4.043 C 0.219,5.297 1.555,5.696 2.649,5.578 C 4.165,5.399 5.719,4.383 6.336,2.969 C 6.594,2.391 6.676,1.711 6.415,1.133 C 6.016,0.317 4.961,0 4.125,0.098 z "
       id="path322" />
  </g>
  <g
     transform="translate(167.5529,123.152)"
     style="fill:#000000;fill-rule:evenodd;stroke:none;stroke-width:0.398506pt;stroke-linecap:butt;stroke-linejoin:miter;stroke-dasharray:none"
     id="g324">
    <path
       d="M 4.125,0.098 C 2.61,0.297 1.137,1.094 0.379,2.469 C 0.219,2.77 0.122,3.067 0.059,3.407 C 0.02,3.625 0,3.825 0.04,4.043 C 0.219,5.297 1.555,5.696 2.649,5.578 C 4.165,5.399 5.719,4.383 6.336,2.969 C 6.594,2.391 6.676,1.711 6.415,1.133 C 6.016,0.317 4.961,0 4.125,0.098 z "
       id="path326" />
  </g>
  <g
     transform="translate(167.5529,73.1523)"
     style="fill:#000000;fill-rule:evenodd;stroke:none;stroke-width:0.398506pt;stroke-linecap:butt;stroke-linejoin:miter;stroke-dasharray:none"
     id="g328">
    <path
       d="M 4.125,0.0977 C 2.61,0.2969 1.137,1.0938 0.379,2.4688 C 0.219,2.7696 0.122,3.0665 0.059,3.4063 C 0.02,3.625 0,3.8243 0.04,4.043 C 0.219,5.2969 1.555,5.6954 2.649,5.5782 C 4.165,5.3985 5.719,4.3829 6.336,2.9688 C 6.594,2.3907 6.676,1.711 6.415,1.1329 C 6.016,0.3165 4.961,0 4.125,0.0977 z "
       id="path330" />
  </g>
  <g
     transform="translate(146.2019,183.656)"
     style="fill:#000000;fill-rule:evenodd;stroke:#000000;stroke-width:0.398506pt;stroke-linecap:butt;stroke-linejoin:round;stroke-dasharray:none"
     id="g332">
    <path
       d="M 0,16.098 C 0,16.098 0.246,16.098 0.246,16.098 C 0.246,16.098 0.246,0 0.246,0 C 0.246,0 0,0 0,0 C 0,0 0,16.098 0,16.098 z "
       id="path334" />
  </g>
  <g
     transform="translate(140.2959,152.211)"
     style="fill:#000000;fill-rule:evenodd;stroke:#000000;stroke-width:0.398506pt;stroke-linecap:butt;stroke-linejoin:round;stroke-dasharray:none"
     id="g336">
    <path
       d="M 0,16.098 C 0,16.098 0.246,16.098 0.246,16.098 C 0.246,16.098 0.246,0 0.246,0 C 0.246,0 0,0 0,0 C 0,0 0,16.098 0,16.098 z "
       id="path338" />
  </g>
  <g
     transform="translate(146.2019,111.422)"
     style="fill:#000000;fill-rule:evenodd;stroke:#000000;stroke-width:0.398506pt;stroke-linecap:butt;stroke-linejoin:round;stroke-dasharray:none"
     id="g340">
    <path
       d="M 0,16.098 C 0,16.098 0.246,16.098 0.246,16.098 C 0.246,16.098 0.246,0 0.246,0 C 0.246,0 0,0 0,0 C 0,0 0,16.098 0,16.098 z "
       id="path342" />
  </g>
  <g
     transform="translate(140.2959,77.4922)"
     style="fill:#000000;fill-rule:evenodd;stroke:#000000;stroke-width:0.398506pt;stroke-linecap:butt;stroke-linejoin:round;stroke-dasharray:none"
     id="g344">
    <path
       d="M 0,16.0976 C 0,16.0976 0.246,16.0976 0.246,16.0976 C 0.246,16.0976 0.246,0 0.246,0 C 0.246,0 0,0 0,0 C 0,0 0,16.0976 0,16.0976 z "
       id="path346" />
  </g>
  <g
     transform="translate(140.5529,198.152)"
     style="fill:#000000;fill-rule:evenodd;stroke:none;stroke-width:0.398506pt;stroke-linecap:butt;stroke-linejoin:miter;stroke-dasharray:none"
     id="g348">
    <path
       d="M 4.125,0.098 C 2.61,0.297 1.137,1.094 0.379,2.469 C 0.219,2.77 0.122,3.067 0.059,3.407 C 0.02,3.625 0,3.825 0.04,4.043 C 0.219,5.297 1.555,5.696 2.649,5.578 C 4.165,5.399 5.719,4.383 6.336,2.969 C 6.594,2.391 6.676,1.711 6.415,1.133 C 6.016,0.317 4.961,0 4.125,0.098 z "
       id="path350" />
  </g>
  <g
     transform="translate(140.5529,148.152)"
     style="fill:#000000;fill-rule:evenodd;stroke:none;stroke-width:0.398506pt;stroke-linecap:butt;stroke-linejoin:miter;stroke-dasharray:none"
     id="g352">
    <path
       d="M 4.125,0.098 C 2.61,0.297 1.137,1.094 0.379,2.469 C 0.219,2.77 0.122,3.067 0.059,3.407 C 0.02,3.625 0,3.825 0.04,4.043 C 0.219,5.297 1.555,5.696 2.649,5.578 C 4.165,5.399 5.719,4.383 6.336,2.969 C 6.594,2.391 6.676,1.711 6.415,1.133 C 6.016,0.317 4.961,0 4.125,0.098 z "
       id="path354" />
  </g>
  <g
     transform="translate(140.5529,126.152)"
     style="fill:#000000;fill-rule:evenodd;stroke:none;stroke-width:0.398506pt;stroke-linecap:butt;stroke-linejoin:miter;stroke-dasharray:none"
     id="g356">
    <path
       d="M 4.125,0.098 C 2.61,0.297 1.137,1.094 0.379,2.469 C 0.219,2.77 0.122,3.067 0.059,3.407 C 0.02,3.625 0,3.825 0.04,4.043 C 0.219,5.297 1.555,5.696 2.649,5.578 C 4.165,5.399 5.719,4.383 6.336,2.969 C 6.594,2.391 6.676,1.711 6.415,1.133 C 6.016,0.317 4.961,0 4.125,0.098 z "
       id="path358" />
  </g>
  <g
     transform="translate(140.5529,73.1523)"
     style="fill:#000000;fill-rule:evenodd;stroke:none;stroke-width:0.398506pt;stroke-linecap:butt;stroke-linejoin:miter;stroke-dasharray:none"
     id="g360">
    <path
       d="M 4.125,0.0977 C 2.61,0.2969 1.137,1.0938 0.379,2.4688 C 0.219,2.7696 0.122,3.0665 0.059,3.4063 C 0.02,3.625 0,3.8243 0.04,4.043 C 0.219,5.2969 1.555,5.6954 2.649,5.5782 C 4.165,5.3985 5.719,4.3829 6.336,2.9688 C 6.594,2.3907 6.676,1.711 6.415,1.1329 C 6.016,0.3165 4.961,0 4.125,0.0977 z "
       id="path362" />
  </g>
  <g
     transform="translate(118.8849,183.656)"
     style="fill:#000000;fill-rule:evenodd;stroke:#000000;stroke-width:0.398506pt;stroke-linecap:butt;stroke-linejoin:round;stroke-dasharray:none"
     id="g364">
    <path
       d="M 0,16.098 C 0,16.098 0.247,16.098 0.247,16.098 C 0.247,16.098 0.247,0 0.247,0 C 0.247,0 0,0 0,0 C 0,0 0,16.098 0,16.098 z "
       id="path366" />
  </g>
  <g
     transform="translate(112.9789,152.211)"
     style="fill:#000000;fill-rule:evenodd;stroke:#000000;stroke-width:0.398506pt;stroke-linecap:butt;stroke-linejoin:round;stroke-dasharray:none"
     id="g368">
    <path
       d="M 0,16.098 C 0,16.098 0.246,16.098 0.246,16.098 C 0.246,16.098 0.246,0 0.246,0 C 0.246,0 0,0 0,0 C 0,0 0,16.098 0,16.098 z "
       id="path370" />
  </g>
  <g
     transform="translate(118.8849,111.422)"
     style="fill:#000000;fill-rule:evenodd;stroke:#000000;stroke-width:0.398506pt;stroke-linecap:butt;stroke-linejoin:round;stroke-dasharray:none"
     id="g372">
    <path
       d="M 0,16.098 C 0,16.098 0.247,16.098 0.247,16.098 C 0.247,16.098 0.247,0 0.247,0 C 0.247,0 0,0 0,0 C 0,0 0,16.098 0,16.098 z "
       id="path374" />
  </g>
  <g
     transform="translate(94.49488,192.719)"
     style="fill:#000000;fill-rule:evenodd;stroke:none;stroke-width:0.398506pt;stroke-linecap:butt;stroke-linejoin:miter;stroke-dasharray:none"
     id="g376">
    <path
       d="M 7.43,1.734 C 7.07,1.695 6.715,1.734 6.394,1.953 C 5.695,2.433 5.519,3.488 6.035,4.164 C 6.754,5.121 8.226,4.804 8.527,3.668 C 8.625,3.25 8.527,2.789 8.367,2.39 C 8.008,1.394 7.269,0.636 6.273,0.261 C 5.656,0.019 5,0 4.363,0.082 C 3.246,0.199 2.109,0.617 1.332,1.476 C 0.297,2.633 0,4.265 0.098,5.758 C 0.18,6.976 0.496,8.172 1.332,9.086 C 2.172,10.004 3.406,10.422 4.601,10.5 C 5.039,10.543 5.476,10.543 5.894,10.422 C 6.633,10.203 7.269,9.746 7.75,9.148 C 8.129,8.687 8.426,8.129 8.586,7.551 C 8.625,7.394 8.746,7.152 8.687,6.996 C 8.625,6.797 8.348,6.734 8.246,6.933 C 8.148,7.093 8.129,7.293 8.066,7.472 C 7.949,7.832 7.789,8.191 7.57,8.508 C 6.793,9.683 5.18,10.48 3.824,9.746 C 3.148,9.367 2.969,8.609 2.887,7.91 C 2.769,7.035 2.828,6.156 2.828,5.281 C 2.828,4.426 2.789,3.586 2.867,2.73 C 2.926,2.133 3.066,1.437 3.547,1.015 C 3.863,0.719 4.301,0.617 4.723,0.578 C 5.719,0.48 6.851,0.879 7.43,1.734 z "
       id="path378" />
  </g>
  <g
     transform="translate(73.27208,187.52)"
     style="fill:#000000;fill-rule:evenodd;stroke:none;stroke-width:0.398506pt;stroke-linecap:butt;stroke-linejoin:miter;stroke-dasharray:none"
     id="g380">
    <path
       d="M 1.875,3.25 C 1.9727,2.851 2.1953,2.453 2.4336,2.132 C 2.711,1.753 3.0508,1.414 3.4492,1.156 C 5.082,0.14 6.9766,1.117 7.7149,2.75 C 7.9531,3.269 8.1328,3.828 8.211,4.382 C 8.2891,4.941 8.3125,5.5 8.2696,6.058 C 8.0117,8.75 6.2578,10.898 4.207,12.535 C 3.1914,13.351 2.0938,14.066 0.9766,14.765 C 0.7188,14.925 0.4219,15.066 0.1602,15.242 C 0.0625,15.324 0,15.441 0.0625,15.562 C 0.2227,15.863 0.6797,15.542 0.8985,15.441 C 1.6953,15.105 2.4727,14.746 3.2305,14.367 C 6.1797,12.894 9.4649,10.722 10.4608,7.375 C 10.9418,5.699 10.9418,3.707 9.8438,2.253 C 9.1094,1.277 7.9531,0.699 6.7774,0.437 C 4.8242,0 2.793,0.281 1.4375,1.894 C 0.7774,2.671 0.3789,3.687 0.3203,4.703 C 0.2813,5.121 0.3008,5.539 0.4805,5.918 C 1.1563,7.394 3.3281,7.71 4.207,6.238 C 4.9649,4.96 4.2266,3.25 2.711,3.109 C 2.4141,3.089 2.1524,3.148 1.875,3.25 z M 12.2778,1.972 C 12.1168,2.011 11.9768,2.054 11.8358,2.152 C 10.9608,2.75 11.5198,4.183 12.5738,4.027 C 12.7348,3.984 12.8748,3.945 13.0118,3.847 C 13.8908,3.25 13.3318,1.812 12.2778,1.972 z M 12.2778,6.933 C 12.1168,6.976 11.9768,7.015 11.8358,7.113 C 10.9608,7.71 11.5198,9.148 12.5738,8.988 C 12.7348,8.949 12.8748,8.906 13.0118,8.808 C 13.8908,8.21 13.3318,6.777 12.2778,6.933 z "
       id="path382" />
  </g>
  <g
     transform="translate(112.5529,198.152)"
     style="fill:#000000;fill-rule:evenodd;stroke:none;stroke-width:0.398506pt;stroke-linecap:butt;stroke-linejoin:miter;stroke-dasharray:none"
     id="g384">
    <path
       d="M 4.125,0.098 C 2.61,0.297 1.137,1.094 0.379,2.469 C 0.219,2.77 0.122,3.067 0.059,3.407 C 0.02,3.625 0,3.825 0.04,4.043 C 0.219,5.297 1.555,5.696 2.649,5.578 C 4.165,5.399 5.719,4.383 6.336,2.969 C 6.594,2.391 6.676,1.711 6.415,1.133 C 6.016,0.317 4.961,0 4.125,0.098 z "
       id="path386" />
  </g>
  <g
     transform="translate(94.49488,153.719)"
     style="fill:#000000;fill-rule:evenodd;stroke:none;stroke-width:0.398506pt;stroke-linecap:butt;stroke-linejoin:miter;stroke-dasharray:none"
     id="g388">
    <path
       d="M 7.43,1.734 C 7.07,1.695 6.715,1.734 6.394,1.953 C 5.695,2.433 5.519,3.488 6.035,4.164 C 6.754,5.121 8.226,4.804 8.527,3.668 C 8.625,3.25 8.527,2.789 8.367,2.39 C 8.008,1.394 7.269,0.636 6.273,0.261 C 5.656,0.019 5,0 4.363,0.082 C 3.246,0.199 2.109,0.617 1.332,1.476 C 0.297,2.633 0,4.265 0.098,5.758 C 0.18,6.976 0.496,8.172 1.332,9.086 C 2.172,10.004 3.406,10.422 4.601,10.5 C 5.039,10.543 5.476,10.543 5.894,10.422 C 6.633,10.203 7.269,9.746 7.75,9.148 C 8.129,8.687 8.426,8.129 8.586,7.551 C 8.625,7.394 8.746,7.152 8.687,6.996 C 8.625,6.797 8.348,6.734 8.246,6.933 C 8.148,7.093 8.129,7.293 8.066,7.472 C 7.949,7.832 7.789,8.191 7.57,8.508 C 6.793,9.683 5.18,10.48 3.824,9.746 C 3.148,9.367 2.969,8.609 2.887,7.91 C 2.769,7.035 2.828,6.156 2.828,5.281 C 2.828,4.426 2.789,3.586 2.867,2.73 C 2.926,2.133 3.066,1.437 3.547,1.015 C 3.863,0.719 4.301,0.617 4.723,0.578 C 5.719,0.48 6.851,0.879 7.43,1.734 z "
       id="path390" />
  </g>
  <g
     transform="translate(73.27208,148.52)"
     style="fill:#000000;fill-rule:evenodd;stroke:none;stroke-width:0.398506pt;stroke-linecap:butt;stroke-linejoin:miter;stroke-dasharray:none"
     id="g392">
    <path
       d="M 1.875,3.25 C 1.9727,2.851 2.1953,2.453 2.4336,2.132 C 2.711,1.753 3.0508,1.414 3.4492,1.156 C 5.082,0.14 6.9766,1.117 7.7149,2.75 C 7.9531,3.269 8.1328,3.828 8.211,4.382 C 8.2891,4.941 8.3125,5.5 8.2696,6.058 C 8.0117,8.75 6.2578,10.898 4.207,12.535 C 3.1914,13.351 2.0938,14.066 0.9766,14.765 C 0.7188,14.925 0.4219,15.066 0.1602,15.242 C 0.0625,15.324 0,15.441 0.0625,15.562 C 0.2227,15.863 0.6797,15.542 0.8985,15.441 C 1.6953,15.105 2.4727,14.746 3.2305,14.367 C 6.1797,12.894 9.4649,10.722 10.4608,7.375 C 10.9418,5.699 10.9418,3.707 9.8438,2.253 C 9.1094,1.277 7.9531,0.699 6.7774,0.437 C 4.8242,0 2.793,0.281 1.4375,1.894 C 0.7774,2.671 0.3789,3.687 0.3203,4.703 C 0.2813,5.121 0.3008,5.539 0.4805,5.918 C 1.1563,7.394 3.3281,7.71 4.207,6.238 C 4.9649,4.96 4.2266,3.25 2.711,3.109 C 2.4141,3.089 2.1524,3.148 1.875,3.25 z M 12.2778,1.972 C 12.1168,2.011 11.9768,2.054 11.8358,2.152 C 10.9608,2.75 11.5198,4.183 12.5738,4.027 C 12.7348,3.984 12.8748,3.945 13.0118,3.847 C 13.8908,3.25 13.3318,1.812 12.2778,1.972 z M 12.2778,6.933 C 12.1168,6.976 11.9768,7.015 11.8358,7.113 C 10.9608,7.71 11.5198,9.148 12.5738,8.988 C 12.7348,8.949 12.8748,8.906 13.0118,8.808 C 13.8908,8.21 13.3318,6.777 12.2778,6.933 z "
       id="path394" />
  </g>
  <g
     transform="translate(112.5529,148.152)"
     style="fill:#000000;fill-rule:evenodd;stroke:none;stroke-width:0.398506pt;stroke-linecap:butt;stroke-linejoin:miter;stroke-dasharray:none"
     id="g396">
    <path
       d="M 4.125,0.098 C 2.61,0.297 1.137,1.094 0.379,2.469 C 0.219,2.77 0.122,3.067 0.059,3.407 C 0.02,3.625 0,3.825 0.04,4.043 C 0.219,5.297 1.555,5.696 2.649,5.578 C 4.165,5.399 5.719,4.383 6.336,2.969 C 6.594,2.391 6.676,1.711 6.415,1.133 C 6.016,0.317 4.961,0 4.125,0.098 z "
       id="path398" />
  </g>
  <g
     transform="translate(94.49488,113.719)"
     style="fill:#000000;fill-rule:evenodd;stroke:none;stroke-width:0.398506pt;stroke-linecap:butt;stroke-linejoin:miter;stroke-dasharray:none"
     id="g400">
    <path
       d="M 7.43,1.734 C 7.07,1.695 6.715,1.734 6.394,1.953 C 5.695,2.433 5.519,3.488 6.035,4.164 C 6.754,5.121 8.226,4.804 8.527,3.668 C 8.625,3.25 8.527,2.789 8.367,2.39 C 8.008,1.394 7.269,0.636 6.273,0.261 C 5.656,0.019 5,0 4.363,0.082 C 3.246,0.199 2.109,0.617 1.332,1.476 C 0.297,2.633 0,4.265 0.098,5.758 C 0.18,6.976 0.496,8.172 1.332,9.086 C 2.172,10.004 3.406,10.422 4.601,10.5 C 5.039,10.543 5.476,10.543 5.894,10.422 C 6.633,10.203 7.269,9.746 7.75,9.148 C 8.129,8.687 8.426,8.129 8.586,7.551 C 8.625,7.394 8.746,7.152 8.687,6.996 C 8.625,6.797 8.348,6.734 8.246,6.933 C 8.148,7.093 8.129,7.293 8.066,7.472 C 7.949,7.832 7.789,8.191 7.57,8.508 C 6.793,9.683 5.18,10.48 3.824,9.746 C 3.148,9.367 2.969,8.609 2.887,7.91 C 2.769,7.035 2.828,6.156 2.828,5.281 C 2.828,4.426 2.789,3.586 2.867,2.73 C 2.926,2.133 3.066,1.437 3.547,1.015 C 3.863,0.719 4.301,0.617 4.723,0.578 C 5.719,0.48 6.851,0.879 7.43,1.734 z "
       id="path402" />
  </g>
  <g
     transform="translate(73.21348,98.9922)"
     style="fill:#000000;fill-rule:evenodd;stroke:none;stroke-width:0.398506pt;stroke-linecap:butt;stroke-linejoin:miter;stroke-dasharray:none"
     id="g404">
    <path
       d="M 8.8086,30.1288 C 8.8086,31.9218 8.9688,33.8558 8.0899,35.4878 C 7.8906,35.8668 7.6133,36.2268 7.293,36.5038 C 6.375,37.3008 5.0821,37.4218 4.0039,36.8438 C 3.5664,36.6058 3.2305,36.2658 2.9297,35.8868 C 3.4297,36.0078 3.8867,36.0278 4.3633,35.7888 C 5.6602,35.1098 5.6992,33.1958 4.543,32.3598 C 3.2891,31.4458 1.3946,32.4608 1.2578,33.9338 C 1.2149,34.2928 1.2774,34.6718 1.375,35.0118 C 1.9922,37.4998 5.2032,38.9138 7.3946,37.4808 C 9.1446,36.3438 9.6055,34.1718 9.6446,32.2418 C 9.6641,31.7028 9.6641,31.1448 9.6641,30.6058 C 9.6641,30.4258 9.586,30.1288 9.6641,29.9488 C 9.7032,29.8518 9.9024,29.8088 10.0039,29.7698 C 10.2813,29.6718 10.5624,29.5118 10.8204,29.3518 C 11.5394,28.8748 12.0934,28.1958 12.5154,27.4568 C 13.6094,25.4258 13.0894,22.7148 11.4184,21.1408 C 10.4614,20.2458 9.1875,19.7658 7.8711,19.7658 C 7.8321,19.4098 7.6719,19.0308 7.5742,18.6718 C 7.375,17.9918 7.1719,17.3168 6.9532,16.6598 C 6.9532,16.6598 6.6563,15.7618 6.6563,15.7618 C 6.6367,15.6638 6.5352,15.5038 6.5547,15.4028 C 6.6172,15.2028 6.875,14.9848 6.9961,14.8238 C 7.293,14.4258 7.5938,14.0278 7.8711,13.6098 C 8.7696,12.2778 9.586,10.8598 9.9024,9.2658 C 10.4024,6.7778 9.6446,4.2068 8.3906,2.0548 C 8.0703,1.4958 7.711,0.957 7.2735,0.4805 C 7.1133,0.3008 6.8946,0 6.6367,0.1797 C 6.4571,0.2812 6.3164,0.4609 6.1758,0.5976 C 5.7774,0.9961 5.4024,1.4768 5.1016,1.9528 C 3.5078,4.4848 3.5469,7.5548 4.1446,10.3828 C 4.3242,11.1988 4.5625,12.0158 4.7813,12.8128 C 4.8633,13.0508 4.9414,13.2738 5.0039,13.5118 C 5.043,13.5898 5.1016,13.7108 5.0821,13.7888 C 5.0625,13.9488 4.8242,14.1678 4.7227,14.2888 C 4.7227,14.2888 3.7656,15.5038 3.7656,15.5038 C 2.7696,16.7778 1.8125,18.0938 1.1563,19.5898 C 0,22.1798 0.0391,25.2848 1.875,27.5778 C 2.211,28.0158 2.5899,28.4138 3.0313,28.7538 C 3.5664,29.1718 4.1446,29.5118 4.7813,29.7698 C 5.6992,30.1288 6.6953,30.2888 7.6914,30.2498 C 8.0703,30.2268 8.4297,30.1488 8.8086,30.1288 z M 5.7578,12.9728 C 5.6406,12.8128 5.6016,12.5548 5.5586,12.3748 C 5.4219,11.9568 5.3008,11.5388 5.2032,11.1018 C 5.0039,10.3628 4.8242,9.6248 4.7813,8.8668 C 4.7227,7.4918 5.1211,6.0778 5.8985,4.9418 C 6.2774,4.3668 6.7344,3.8478 7.293,3.4098 C 7.4141,3.3278 7.6914,3.0308 7.8516,3.0508 C 7.9922,3.0698 8.1289,3.4878 8.1914,3.6098 C 8.5078,4.2458 8.6485,4.9418 8.6485,5.6408 C 8.6485,7.5938 8.0899,9.3478 7.0938,11.0198 C 6.6758,11.6988 6.1758,12.3168 5.7578,12.9728 z M 5.918,16.2228 C 5.918,16.2228 7.0156,19.8278 7.0156,19.8278 C 6.5352,19.9878 6.0782,20.0668 5.6406,20.3048 C 4.3633,21.0428 3.5078,22.4958 3.6055,23.9918 C 3.6875,25.2458 4.3242,26.3438 5.3399,27.0588 C 5.5586,27.2378 5.8203,27.3598 6.0586,27.4808 C 6.1992,27.5588 6.3164,27.6168 6.4766,27.5778 C 6.7539,27.5198 6.9141,27.1598 6.7149,26.9218 C 6.5547,26.7028 6.1992,26.6018 5.9766,26.4218 C 5.4414,26.0038 5.0235,25.4058 4.9024,24.7308 C 4.7422,23.6328 5.3789,22.6558 6.3555,22.1988 C 6.7539,22.0198 7.1524,21.9998 7.5742,21.9178 C 8.0703,23.7108 8.3906,25.6058 8.6094,27.4568 C 8.668,27.8988 8.6875,28.3168 8.7266,28.7538 C 8.7461,28.8748 8.8282,29.1718 8.7461,29.2498 C 8.668,29.3518 8.3282,29.3518 8.211,29.3518 C 7.6524,29.3908 7.1133,29.4098 6.5547,29.3318 C 4.4453,29.0308 2.0547,27.4808 1.8125,25.1678 C 1.4766,21.6798 3.9453,18.8128 5.8789,16.2228 C 5.8789,16.2228 5.918,16.2228 5.918,16.2228 z M 8.4688,21.9608 C 9.4844,22.2188 10.3634,22.5978 11.0194,23.4728 C 12.1364,24.9688 12.0544,27.1408 10.6404,28.4138 C 10.3438,28.6958 9.9844,28.8948 9.6055,29.0508 C 9.4844,28.5738 9.5235,28.0158 9.4649,27.5198 C 9.3438,26.4808 9.1875,25.4458 8.9883,24.4298 C 8.8867,23.8708 8.7696,23.2928 8.6289,22.7378 C 8.5899,22.5158 8.4492,22.1798 8.4688,21.9608 z "
       id="path406" />
  </g>
  <g
     transform="translate(112.5529,126.152)"
     style="fill:#000000;fill-rule:evenodd;stroke:none;stroke-width:0.398506pt;stroke-linecap:butt;stroke-linejoin:miter;stroke-dasharray:none"
     id="g408">
    <path
       d="M 4.125,0.098 C 2.61,0.297 1.137,1.094 0.379,2.469 C 0.219,2.77 0.122,3.067 0.059,3.407 C 0.02,3.625 0,3.825 0.04,4.043 C 0.219,5.297 1.555,5.696 2.649,5.578 C 4.165,5.399 5.719,4.383 6.336,2.969 C 6.594,2.391 6.676,1.711 6.415,1.133 C 6.016,0.317 4.961,0 4.125,0.098 z "
       id="path410" />
  </g>
  <g
     transform="translate(94.49488,73.7188)"
     style="fill:#000000;fill-rule:evenodd;stroke:none;stroke-width:0.398506pt;stroke-linecap:butt;stroke-linejoin:miter;stroke-dasharray:none"
     id="g412">
    <path
       d="M 7.43,1.7343 C 7.07,1.6953 6.715,1.7343 6.394,1.9531 C 5.695,2.4335 5.519,3.4882 6.035,4.164 C 6.754,5.121 8.226,4.8046 8.527,3.6679 C 8.625,3.25 8.527,2.789 8.367,2.3906 C 8.008,1.3945 7.269,0.6367 6.273,0.2617 C 5.656,0.0195 5,0 4.363,0.082 C 3.246,0.1992 2.109,0.6171 1.332,1.4765 C 0.297,2.6328 0,4.2656 0.098,5.7578 C 0.18,6.9765 0.496,8.1718 1.332,9.0859 C 2.172,10.0039 3.406,10.4218 4.601,10.5 C 5.039,10.5429 5.476,10.5429 5.894,10.4218 C 6.633,10.2031 7.269,9.746 7.75,9.1484 C 8.129,8.6874 8.426,8.1289 8.586,7.5507 C 8.625,7.3945 8.746,7.1523 8.687,6.996 C 8.625,6.7968 8.348,6.7343 8.246,6.9335 C 8.148,7.0937 8.129,7.2929 8.066,7.4726 C 7.949,7.832 7.789,8.1914 7.57,8.5078 C 6.793,9.6835 5.18,10.4804 3.824,9.746 C 3.148,9.3671 2.969,8.6093 2.887,7.9101 C 2.769,7.0351 2.828,6.1562 2.828,5.2812 C 2.828,4.4257 2.789,3.5859 2.867,2.7304 C 2.926,2.1328 3.066,1.4374 3.547,1.0156 C 3.863,0.7187 4.301,0.6171 4.723,0.5781 C 5.719,0.4804 6.851,0.8789 7.43,1.7343 z "
       id="path414" />
  </g>
  <g
     transform="translate(73.21348,58.9922)"
     style="fill:#000000;fill-rule:evenodd;stroke:none;stroke-width:0.398506pt;stroke-linecap:butt;stroke-linejoin:miter;stroke-dasharray:none"
     id="g416">
    <path
       d="M 8.8086,30.1289 C 8.8086,31.9219 8.9688,33.8555 8.0899,35.4883 C 7.8906,35.8672 7.6133,36.2266 7.293,36.5039 C 6.375,37.3008 5.0821,37.4219 4.0039,36.8437 C 3.5664,36.6055 3.2305,36.2656 2.9297,35.8867 C 3.4297,36.0078 3.8867,36.0273 4.3633,35.789 C 5.6602,35.1094 5.6992,33.1953 4.543,32.3594 C 3.2891,31.4453 1.3946,32.4609 1.2578,33.9336 C 1.2149,34.293 1.2774,34.6719 1.375,35.0117 C 1.9922,37.5 5.2032,38.914 7.3946,37.4805 C 9.1446,36.3437 9.6055,34.1719 9.6446,32.2422 C 9.6641,31.7031 9.6641,31.1445 9.6641,30.6055 C 9.6641,30.4258 9.586,30.1289 9.6641,29.9492 C 9.7032,29.8516 9.9024,29.8086 10.0039,29.7695 C 10.2813,29.6719 10.5624,29.5117 10.8204,29.3516 C 11.5394,28.875 12.0934,28.1953 12.5154,27.457 C 13.6094,25.4258 13.0894,22.7148 11.4184,21.1406 C 10.4614,20.2461 9.1875,19.7656 7.8711,19.7656 C 7.8321,19.4101 7.6719,19.0312 7.5742,18.6719 C 7.375,17.9922 7.1719,17.3164 6.9532,16.6601 C 6.9532,16.6601 6.6563,15.7617 6.6563,15.7617 C 6.6367,15.664 6.5352,15.5039 6.5547,15.4023 C 6.6172,15.2031 6.875,14.9844 6.9961,14.8242 C 7.293,14.4258 7.5938,14.0273 7.8711,13.6094 C 8.7696,12.2773 9.586,10.8594 9.9024,9.2656 C 10.4024,6.7773 9.6446,4.207 8.3906,2.0547 C 8.0703,1.4961 7.711,0.957 7.2735,0.4805 C 7.1133,0.3008 6.8946,0 6.6367,0.1797 C 6.4571,0.2812 6.3164,0.4609 6.1758,0.5976 C 5.7774,0.9961 5.4024,1.4766 5.1016,1.9531 C 3.5078,4.4844 3.5469,7.5547 4.1446,10.3828 C 4.3242,11.1992 4.5625,12.0156 4.7813,12.8125 C 4.8633,13.0508 4.9414,13.2734 5.0039,13.5117 C 5.043,13.5898 5.1016,13.7109 5.0821,13.789 C 5.0625,13.9492 4.8242,14.168 4.7227,14.289 C 4.7227,14.289 3.7656,15.5039 3.7656,15.5039 C 2.7696,16.7773 1.8125,18.0937 1.1563,19.5898 C 0,22.1797 0.0391,25.2851 1.875,27.5781 C 2.211,28.0156 2.5899,28.414 3.0313,28.7539 C 3.5664,29.1719 4.1446,29.5117 4.7813,29.7695 C 5.6992,30.1289 6.6953,30.289 7.6914,30.25 C 8.0703,30.2266 8.4297,30.1484 8.8086,30.1289 z M 5.7578,12.9726 C 5.6406,12.8125 5.6016,12.5547 5.5586,12.375 C 5.4219,11.957 5.3008,11.539 5.2032,11.1016 C 5.0039,10.3633 4.8242,9.625 4.7813,8.8672 C 4.7227,7.4922 5.1211,6.0781 5.8985,4.9414 C 6.2774,4.3672 6.7344,3.8476 7.293,3.4101 C 7.4141,3.3281 7.6914,3.0312 7.8516,3.0508 C 7.9922,3.0703 8.1289,3.4883 8.1914,3.6094 C 8.5078,4.2461 8.6485,4.9414 8.6485,5.6406 C 8.6485,7.5937 8.0899,9.3476 7.0938,11.0195 C 6.6758,11.6992 6.1758,12.3164 5.7578,12.9726 z M 5.918,16.2226 C 5.918,16.2226 7.0156,19.8281 7.0156,19.8281 C 6.5352,19.9883 6.0782,20.0664 5.6406,20.3047 C 4.3633,21.043 3.5078,22.4961 3.6055,23.9922 C 3.6875,25.2461 4.3242,26.3437 5.3399,27.0586 C 5.5586,27.2383 5.8203,27.3594 6.0586,27.4805 C 6.1992,27.5586 6.3164,27.6172 6.4766,27.5781 C 6.7539,27.5195 6.9141,27.1601 6.7149,26.9219 C 6.5547,26.7031 6.1992,26.6016 5.9766,26.4219 C 5.4414,26.0039 5.0235,25.4062 4.9024,24.7305 C 4.7422,23.6328 5.3789,22.6562 6.3555,22.1992 C 6.7539,22.0195 7.1524,22 7.5742,21.918 C 8.0703,23.7109 8.3906,25.6055 8.6094,27.457 C 8.668,27.8984 8.6875,28.3164 8.7266,28.7539 C 8.7461,28.875 8.8282,29.1719 8.7461,29.25 C 8.668,29.3516 8.3282,29.3516 8.211,29.3516 C 7.6524,29.3906 7.1133,29.4101 6.5547,29.332 C 4.4453,29.0312 2.0547,27.4805 1.8125,25.168 C 1.4766,21.6797 3.9453,18.8125 5.8789,16.2226 C 5.8789,16.2226 5.918,16.2226 5.918,16.2226 z M 8.4688,21.9609 C 9.4844,22.2187 10.3634,22.5976 11.0194,23.4726 C 12.1364,24.9687 12.0544,27.1406 10.6404,28.414 C 10.3438,28.6953 9.9844,28.8945 9.6055,29.0508 C 9.4844,28.5742 9.5235,28.0156 9.4649,27.5195 C 9.3438,26.4805 9.1875,25.4453 8.9883,24.4297 C 8.8867,23.8711 8.7696,23.293 8.6289,22.7383 C 8.5899,22.5156 8.4492,22.1797 8.4688,21.9609 z "
       id="path418" />
  </g>
  <g
     transform="translate(112.0339,71.0117)"
     style="fill:#000000;fill-rule:evenodd;stroke:none;stroke-width:0.398506pt;stroke-linecap:butt;stroke-linejoin:miter;stroke-dasharray:none"
     id="g420">
    <path
       d="M 3.25,10.0391 C 2.551,9.8399 1.934,9.5625 1.195,9.4844 C 0.918,9.4414 0.539,9.4219 0.301,9.6211 C 0,9.8828 0.062,10.3789 0.121,10.7188 C 0.281,11.6758 0.758,12.5508 1.258,13.3672 C 1.414,13.6485 1.594,13.8867 1.793,14.1445 C 1.855,14.2266 1.953,14.3828 2.074,14.3633 C 2.172,14.3242 2.211,14.2266 2.172,14.1445 C 2.094,13.9453 1.934,13.7656 1.855,13.5469 C 1.637,13.0078 1.555,12.3906 1.656,11.8125 C 1.695,11.5547 1.793,11.2578 2.012,11.0977 C 2.59,10.6367 3.687,10.9961 4.246,11.3555 C 4.465,11.5156 4.883,12.0313 5.101,11.5742 C 5.262,11.2578 4.703,10.7969 4.523,10.5781 C 3.887,9.8399 2.988,9.086 2.91,8.0469 C 2.851,7.0117 3.508,6.3555 4.246,5.7383 C 4.625,5.4375 5.101,5.0781 5.301,4.6211 C 5.519,4.1016 5.184,3.7656 4.863,3.3867 C 4.863,3.3867 2.891,1.0352 2.891,1.0352 C 2.891,1.0352 2.312,0.3555 2.312,0.3555 C 2.234,0.2578 2.152,0.1172 2.012,0.0977 C 1.656,0 1.535,0.3985 1.715,0.6367 C 2.012,1.0156 2.391,1.3516 2.633,1.7735 C 3.07,2.5899 2.93,3.625 2.293,4.3008 C 1.855,4.7617 1.316,5.0977 0.879,5.5586 C 0.66,5.7969 0.418,6.0938 0.418,6.4336 C 0.418,6.8711 0.859,7.2305 1.117,7.5313 C 1.812,8.3672 2.512,9.2422 3.25,10.0391 z "
       id="path422" />
  </g>
  <g
     transform="translate(68.88538,68.8828)"
     style="fill:#000000;fill-rule:evenodd;stroke:#000000;stroke-width:0.49813199pt;stroke-linecap:butt;stroke-linejoin:round;stroke-dasharray:none"
     id="g424">
    <path
       d="M 0,139.476 C 0,139.476 0.2969,139.476 0.2969,139.476 C 0.2969,139.476 0.2969,0 0.2969,0 C 0.2969,0 0,0 0,0 C 0,0 0,139.476 0,139.476 z "
       id="path426" />
  </g>
  <path
     style="fill:none;fill-opacity:0.75;fill-rule:evenodd;stroke:#000000;stroke-width:0.69932914px;stroke-linecap:butt;stroke-linejoin:miter;stroke-opacity:1"
     d="M 189.72246,120.33383 C 185.67012,166.74955 194.63797,227.51249 172.92551,228.29738 C 151.83625,229.05976 163.09752,158.10498 161.64125,128.15646 C 160.2726,100.0101 177.55164,65.575507 199.27389,65.575507 C 220.99611,65.575507 189.72246,92.139275 189.72246,120.33383 z "
     id="path1447"
     sodipodi:nodetypes="csssc" />
</svg>
